# xmcd
#
# Track frame offsets: 
#        150
#        7405
#        23801
#        27027
#        44865
#        49691
#        72297
#        97724
#        125207
#        147205
#        166874
#        191481
#        195356
#        227066
#        239728
#
# Disc length: 4276 seconds
#
# Revision: 0
# Processed by: cddbd v1.5.2PL0 Copyright (c) Steve Scherf et al.
# Submitted via: ExactAudioCopyFreeDBPlugin 1.0
#
DISCID=cf10b20f
DTITLE=Delaney and Bonnie - A and R Studios 1971
DYEAR=1971
DGENRE=Blues
TTITLE0=Announcer
TTITLE1=Come On In My Kitchen
TTITLE2=Chat 1
TTITLE3=Going´ Down The Road Feeling Bad
TTITLE4=Chat 2
TTITLE5=Poor Elijah
TTITLE6=The Ghetto
TTITLE7=Announcer
TTITLE8=Livin´ On The Open Road
TTITLE9=Better Relations
TTITLE10=The Love Of My Man
TTITLE11=Chat 3
TTITLE12=12 Bar Blues (Don´t Want Me Around)
TTITLE13=Chat 4
TTITLE14=Only You Know and I Know Jam
EXTD=
EXTT0=
EXTT1=
EXTT2=
EXTT3=
EXTT4=
EXTT5=
EXTT6=
EXTT7=
EXTT8=
EXTT9=
EXTT10=
EXTT11=
EXTT12=
EXTT13=
EXTT14=
PLAYORDER=
